<svg xmlns="http://www.w3.org/2000/svg" width="142.552" height="110.857" viewBox="0 0 142.552 110.857"><defs><style>.a{fill:#fff}.b{fill:#262626}.c{fill:#f73e62}</style></defs><path class="a" d="M60.802 18.155v7.808a15.259 15.259 0 0 0 1.459-7.808zm35.526 22.531a12.161 12.161 0 0 0-3.269-.405 10.878 10.878 0 0 0-8.267 3.323 8.994 8.994 0 0 0-1.837 2.647c1.324 2.567 3.593 5.025 6.213 5.917a6.311 6.311 0 0 0 3.161.351 5.261 5.261 0 0 0 4.215-3.35 11.812 11.812 0 0 0-.216-8.483zm38.498 27.502c-9.1 11.32-19.614 11.914-35.58 8.051a49.133 49.133 0 0 1 9.375-8.348 10.858 10.858 0 0 0 .7 2.188c1.7 4.106 5.754 7.429 10.563 6.106a6.22 6.22 0 0 0 4.809-6.106 7.563 7.563 0 0 0-2.4-5.889 31.2 31.2 0 0 1 8.564 2.269c1.321.541 2.618 1.108 3.969 1.729zm-56.598 9.993a56.561 56.561 0 0 1-4.809 3.809c-6.214 4.377-10.941 5.187-15.993 3.782-3.4-.919-6.916-2.837-11.185-5.349 3.539-3.3 6.916-5.268 10.536-6.105a9.757 9.757 0 0 0 .648 7.645 4.776 4.776 0 0 0 4.241 2.675 5.186 5.186 0 0 0 5.079-3.593 11.6 11.6 0 0 0 .189-6.565 65.666 65.666 0 0 1 11.294 3.701z"/><path class="a" d="M66.745 81.048a5.186 5.186 0 0 1-5.079 3.593 4.776 4.776 0 0 1-4.241-2.675v-.918zM50.068 52.229C28.299 40.072 16.99 44.594 3.984 56.187c14.706 11.309 31.384 14.422 46.084-3.958z"/><path class="b" d="M60.802 18.155v7.808a15.259 15.259 0 0 0 1.459-7.808zm0-8.078v1.594h4.89a36.641 36.641 0 0 0-4.89-1.594z"/><path class="b" d="M83.009 21.775l-3.107 2.053c-.54.378-1.107.729-1.621 1.108-.946.621-1.837 1.27-2.729 1.891-6.862 4.809-13.238 9.24-22.18 9.24-6.916 0-15.372-2.62-26.854-9.78l-2.972-1.864 2.7-2.242c8.942-7.483 17.02-13.211 27.313-13.1v20.206c-6.754-.756-9.7-6.7-7.673-13.832-4.43 1.567-8.78 4.485-13.616 8.348 21.154 12.292 29.312 6.592 40.362-1.162.432-.3.892-.594 1.324-.919a69.356 69.356 0 0 0-6.133-3.566h3.944v-3.62c2.08 1.108 4.242 2.431 6.511 3.944.54.378 1.108.756 1.675 1.162z"/><path class="a" d="M73.959 21.721c-.432.324-.892.621-1.324.919-11.052 7.753-19.208 13.453-40.362 1.163 4.836-3.863 9.186-6.781 13.616-8.348-2.026 7.132.918 13.076 7.673 13.832a12.484 12.484 0 0 0 1.459.081 6.216 6.216 0 0 0 5.781-3.4 15.259 15.259 0 0 0 1.459-7.808 22.651 22.651 0 0 0-.243-2.512 44.928 44.928 0 0 1 5.809 2.512 69.356 69.356 0 0 1 6.132 3.561z"/><path class="b" d="M96.328 40.686a12.161 12.161 0 0 0-3.269-.405 10.878 10.878 0 0 0-8.267 3.323 8.994 8.994 0 0 0-1.837 2.647c1.324 2.567 3.593 5.025 6.213 5.917a6.311 6.311 0 0 0 3.161.351 5.261 5.261 0 0 0 4.215-3.35 11.812 11.812 0 0 0-.216-8.483zM81.955 60.219a31.868 31.868 0 0 1-6.024-1.54h1.162v-4.971a27.545 27.545 0 0 0 4.728 1.3v.3c0 .784 0 1.567.027 2.3 0 .882.026 1.773.107 2.611zm-10.563-9.105c.7.378 1.4.756 2.107 1.081h-7.375V49.25c.756-.783 1.486-1.54 2.215-2.242h7.429c-1.431 1.216-2.864 2.594-4.376 4.106z"/><path class="b" d="M114.591 40.524h-5.268v8.618a36.42 36.42 0 0 1-5 5.025c0-1.135-.027-2.242-.108-3.323a16.012 16.012 0 0 0-.486-3.053 30.812 30.812 0 0 0 3.782-4.782 46.067 46.067 0 0 0-11.563-3.269 5.763 5.763 0 0 1 .378.946 12.161 12.161 0 0 0-3.269-.405 10.878 10.878 0 0 0-8.267 3.323 8.994 8.994 0 0 0-1.837 2.647 10.552 10.552 0 0 1-1.108-3.674 29.325 29.325 0 0 0-2.891 1.891v-3.944h-3.185c9.888-7.24 19.938-8.348 36.39-1.081zM97.058 55.301v.432c0 1.135-.027 2.053-.081 2.81a23.159 23.159 0 0 1-2.918 1.027 25.259 25.259 0 0 1-4.7.865 17.423 17.423 0 0 1-.216-2.54 66.79 66.79 0 0 1-.054-2.566 18.309 18.309 0 0 0 3.593-.675 21 21 0 0 0 4.323-1.756c.053.674.053 1.489.053 2.403zm27.636 14.783a6.22 6.22 0 0 1-4.809 6.106c-4.809 1.324-8.861-2-10.563-6.106h7.267V59.192a4.438 4.438 0 0 1 .837-.108h1.621l1.162 2.431 4.08 8.564z"/><path class="b" d="M142.548 66.189l-1.729 2.485c-4.674 6.7-9.807 10.671-15.264 12.778a31.405 31.405 0 0 1-11.59 2.053h-.243c-6.376-.027-12.995-1.567-19.749-3.377l-3.809-1.027 2.512-3.053c6.079-7.429 11.563-11.968 16.642-14.48v8.51a10.858 10.858 0 0 1-.7-2.188 49.133 49.133 0 0 0-9.375 8.348c15.966 3.863 26.476 3.269 35.58-8.051a99.114 99.114 0 0 0-3.971-1.729l-1.729-3.323-1.675-3.214a77.036 77.036 0 0 1 12.373 5zM57.425 81.048v.918a4.776 4.776 0 0 0 4.241 2.675 5.186 5.186 0 0 0 5.079-3.593z"/><path class="b" d="M87.386 76.59l-2.756 2.647a75.621 75.621 0 0 1-7.132 6.079 8.838 8.838 0 0 0-1.162-1.351c-.189-.189-.378-.351-.567-.513a8.786 8.786 0 0 0-2.351-1.459 56.561 56.561 0 0 0 4.809-3.809 65.666 65.666 0 0 0-11.293-3.7 11.6 11.6 0 0 1-.189 6.565h-9.32v.918a9.757 9.757 0 0 1-.648-7.645c-3.62.837-7 2.81-10.536 6.105 4.269 2.513 7.781 4.431 11.185 5.349v5.187c-5.052-1.135-10.239-4.052-16.588-7.808l-2.7-1.621 2.135-2.3c13.021-14.075 24.449-12.562 43.63-4.187zm-35.33-22.768l1.878-2.348-2.623-1.464c-22.739-12.7-35.194-8.045-49.02 4.279l-2.294 2.045 2.434 1.872c8.467 6.513 16.62 9.761 24.293 9.761 9.25 0 17.798-4.725 25.332-14.145zm-43.984 2.2a45.969 45.969 0 0 1 8.145-5.579c1.4 3.755 6.49 8.642 10.809 8.642 4.666 0 8.478-3.382 9.074-10.193a56.482 56.482 0 0 1 9.988 4.087c-10.87 11.943-23.638 12.97-38.013 3.043z"/><path class="a" d="M107.512 43.009a30.812 30.812 0 0 1-3.782 4.782 26.633 26.633 0 0 1-6.727 5.106 21 21 0 0 1-4.323 1.756 18.309 18.309 0 0 1-3.593.675 22.916 22.916 0 0 1-7.267-.324 27.545 27.545 0 0 1-4.728-1.3 36.468 36.468 0 0 1-3.593-1.513c-.7-.324-1.405-.7-2.107-1.081 1.513-1.513 2.945-2.891 4.377-4.106a42.276 42.276 0 0 1 3.188-2.54 29.325 29.325 0 0 1 2.891-1.891 10.552 10.552 0 0 0 1.108 3.674c1.324 2.567 3.593 5.025 6.213 5.917a6.311 6.311 0 0 0 3.161.351 5.261 5.261 0 0 0 4.215-3.35 11.812 11.812 0 0 0-.216-8.483 5.763 5.763 0 0 0-.378-.946 46.067 46.067 0 0 1 11.561 3.273z"/><path class="b" d="M71.338 89.152a22.2 22.2 0 0 1-6.673 2.134v-3.755h3.215a7.162 7.162 0 0 1 .81.054 3.476 3.476 0 0 1 2.648 1.567z"/><path class="c" d="M78.282 0v18.479c.54.378 1.108.756 1.675 1.162l3.053 2.134-3.107 2.053c-.54.378-1.107.729-1.621 1.108v4.62h7.267V0zm42.955 93.583v6.078h4.377v.405a4.438 4.438 0 0 1-1.135 3.161 4.224 4.224 0 0 1-3.242 1.162 3.542 3.542 0 0 1-2.864-1.243c-.648-.891-1.081-1.918-1.081-7.321s.432-6.376 1.081-7.267a3.555 3.555 0 0 1 2.864-1.27c2.486 0 3.674 1.081 4.242 3.323h7.294c-.54-3.809-2.647-7.672-7.213-9.158a31.405 31.405 0 0 1-11.59 2.053h-.243a7.69 7.69 0 0 0-.7.621c-3.107 3.107-3 7.267-3 11.7 0 4.458-.108 8.591 3 11.7a11.006 11.006 0 0 0 8.213 3.323c3.242 0 6.079-.7 8.591-3.323 2.242-2.269 3-5.052 3-9.834v-4.11zM60.802 11.67H71.77v6.484h-3.944a44.928 44.928 0 0 0-5.809-2.512 22.651 22.651 0 0 1 .243 2.512h-1.458v7.808a6.216 6.216 0 0 1-5.781 3.4 12.484 12.484 0 0 1-1.459-.081V0h20.073v6.484H60.802zm42.888 17.891h-5.4L88.535.003h7.513l4.982 16.523 4.9-16.523h7.554zm12.784 0V.003h20.089v6.476h-12.827v4.941h10.96v6.476h-10.96v5.19h12.827v6.476zM66.127 52.194h7.375a36.468 36.468 0 0 0 3.593 1.513v4.971H66.127v11.4h-7.27V40.524h20.1v3.944a42.025 42.025 0 0 0-3.188 2.54h-9.642zm30.201-11.508a12.161 12.161 0 0 0-3.269-.405 10.878 10.878 0 0 0-8.267 3.323 8.994 8.994 0 0 0-1.837 2.647c1.324 2.567 3.593 5.025 6.213 5.917.135-2.729.486-3.458 1-4.133a3.614 3.614 0 0 1 2.891-1.27 3.673 3.673 0 0 1 2.918 1.27 3.177 3.177 0 0 1 .567 1.135 11.812 11.812 0 0 0-.216-8.484zm7.997 13.485v1.135c0 4.458.108 8.591-3 11.7a11.944 11.944 0 0 1-16.534 0 10.423 10.423 0 0 1-2.837-6.781 27.594 27.594 0 0 1-.108-2.621c-.027-.729-.027-1.513-.027-2.3v-.3a22.916 22.916 0 0 0 7.267.324c0 1 .027 1.837.054 2.566a17.423 17.423 0 0 0 .216 2.54 3.9 3.9 0 0 0 .811 2.107 3.642 3.642 0 0 0 2.891 1.324 3.7 3.7 0 0 0 2.918-1.324c.486-.675.865-1.378 1-4 .054-.756.081-1.675.081-2.81v-.432c0-.918 0-1.729-.054-2.4a26.633 26.633 0 0 0 6.727-5.106 16.012 16.012 0 0 1 .486 3.053 43.95 43.95 0 0 1 .109 3.325zm24.801 8.965l-1.675-3.215-1.135-2.161a8.508 8.508 0 0 0 4.809-7.727c0-4.863-3.512-9.51-10.077-9.51h-11.725v29.555h7.267v-11h2.458l1.162 2.431 4.08 8.564h.405a7.563 7.563 0 0 0-2.4-5.889 31.2 31.2 0 0 1 8.564 2.269zm-12.535-10.1v-6h4.106a3 3 0 1 1 0 6zM57.425 81.048v.918a4.776 4.776 0 0 0 4.241 2.675 5.186 5.186 0 0 0 5.079-3.593z"/><path class="c" d="M77.498 85.313a8.838 8.838 0 0 0-1.162-1.351c-.189-.189-.378-.351-.567-.513a8.786 8.786 0 0 0-2.351-1.459c-6.214 4.377-10.941 5.187-15.993 3.782v24.831h10.941a11 11 0 0 0 7.97-2.891c3.458-3.458 3.08-7.24 3.08-11.887 0-4.052.297-7.429-1.918-10.512zm-6.133 17.155a3.786 3.786 0 0 1-3.485 1.648h-3.215V87.531h3.215a7.162 7.162 0 0 1 .81.054 3.476 3.476 0 0 1 2.648 1.567.026.026 0 0 1 .027.027c.567.838.783 1.675.783 6.646.001 5.025-.216 5.809-.783 6.646zm31.622 5.069a11.938 11.938 0 0 1-16.523 0c-3.112-3.115-2.988-7.265-2.988-11.706s-.124-8.594 2.988-11.706a11.931 11.931 0 0 1 16.523 0c3.113 3.112 2.988 7.265 2.988 11.706s.125 8.591-2.988 11.706zm-5.354-18.974a3.922 3.922 0 0 0-5.808 0c-.665.87-1.081 1.867-1.081 7.265s.416 6.351 1.081 7.221a3.837 3.837 0 0 0 5.808 0c.665-.87 1.081-1.826 1.081-7.221s-.42-6.392-1.081-7.265z"/></svg>