<svg xmlns="http://www.w3.org/2000/svg" width="880.848" height="685" viewBox="0 0 880.848 685"><defs><style>.a{fill:#fff}.b{fill:#262626}.c{fill:#39d8ae}</style></defs><path class="a" d="M375.703 112.18v48.244c7.679-13.689 9.682-32.052 9.015-48.244zm219.52 139.224a75.152 75.152 0 0 0-20.2-2.5c-22.2 0-37.727 7.178-51.082 20.533a55.571 55.571 0 0 0-11.351 16.359c8.18 15.859 22.2 31.05 38.393 36.559a38.993 38.993 0 0 0 19.532 2.17c13.189-2 21.535-10.016 26.042-20.7 6.51-15.194 5.177-35.895-1.334-52.421zm237.882 169.943c-56.256 69.946-121.195 73.619-219.853 49.747 20.7-23.037 39.9-39.731 57.927-51.583a67.081 67.081 0 0 0 4.34 13.521c10.516 25.374 35.557 45.907 65.27 37.727 20.7-5.675 29.214-21.534 29.716-37.727.5-14.022-5.342-28.379-14.858-36.392 17.862 1.67 35.224 7.011 52.918 14.023 8.18 3.335 16.193 6.841 24.54 10.684zm-349.727 61.762a349.409 349.409 0 0 1-29.713 23.539c-38.395 27.044-67.608 32.051-98.824 23.371-21.034-5.676-42.737-17.528-69.112-33.054 21.868-20.366 42.737-32.552 65.106-37.727-5.174 15.024-3.672 33.887 4.007 47.242 5.508 9.849 14.356 16.526 26.209 16.526 15.692 0 26.376-8.847 31.383-22.2 4.174-11.185 4.675-25.541 1.169-40.565 20.862 4.338 43.732 12.185 69.775 22.868z"/><path class="a" d="M412.428 500.804c-5.007 13.355-15.691 22.2-31.383 22.2-11.853 0-20.7-6.677-26.209-16.526v-5.674zM309.397 322.735c-134.515-75.12-204.4-47.176-284.758 24.456 90.845 69.88 193.912 89.11 284.758-24.456z"/><path class="b" d="M375.703 112.181v48.244c7.679-13.689 9.682-32.052 9.015-48.244zm0-49.914v9.85h30.215a226.434 226.434 0 0 0-30.215-9.85z"/><path class="b" d="M512.924 134.55l-19.2 12.687c-3.339 2.337-6.843 4.507-10.016 6.844-5.843 3.839-11.352 7.846-16.86 11.685-42.4 29.714-81.8 57.092-137.054 57.092-42.735 0-94.986-16.192-165.933-60.431L145.5 150.909l16.694-13.856c55.255-46.24 105.168-81.631 168.771-80.962v124.867c-41.735-4.674-59.93-41.4-47.41-85.471-27.376 9.682-54.253 27.712-84.135 51.583 130.711 75.956 181.125 40.732 249.4-7.178 2.672-1.837 5.509-3.673 8.181-5.676a428.542 428.542 0 0 0-37.894-22.035h24.371v-22.37c12.854 6.845 26.21 15.024 40.232 24.372 3.339 2.338 6.845 4.674 10.351 7.178z"/><path class="a" d="M457.001 134.215c-2.672 2-5.509 3.839-8.181 5.676-68.276 47.91-118.689 83.134-249.4 7.178 29.882-23.871 56.759-41.9 84.135-51.583-12.52 44.071 5.675 80.8 47.41 85.471a77.133 77.133 0 0 0 9.014.5c17.7 0 28.88-8.68 35.725-21.033 7.679-13.689 9.682-32.052 9.015-48.244a139.9 139.9 0 0 0-1.5-15.525 277.6 277.6 0 0 1 35.892 15.525 428.516 428.516 0 0 1 37.89 22.035z"/><path class="b" d="M595.223 251.404a75.152 75.152 0 0 0-20.2-2.5c-22.2 0-37.727 7.178-51.082 20.533a55.571 55.571 0 0 0-11.351 16.359c8.18 15.859 22.2 31.05 38.393 36.559a38.993 38.993 0 0 0 19.532 2.17c13.189-2 21.535-10.016 26.042-20.7 6.51-15.194 5.177-35.895-1.334-52.421zm-88.81 120.694a196.923 196.923 0 0 1-37.226-9.515h7.178v-30.717a170.2 170.2 0 0 0 29.213 8.013v1.836c0 4.842 0 9.682.168 14.19 0 5.508.166 11.017.667 16.193zm-65.271-56.262c4.34 2.337 8.68 4.674 13.022 6.677H408.59v-18.2c4.674-4.841 9.181-9.515 13.689-13.856h45.907c-8.847 7.521-17.695 16.035-27.044 25.379z"/><path class="b" d="M708.071 250.402h-32.552v53.25a225.035 225.035 0 0 1-30.884 31.05c0-7.011-.166-13.855-.667-20.532a98.961 98.961 0 0 0-3.005-18.864 190.381 190.381 0 0 0 23.371-29.547c-27.044-11.018-50.248-17.529-71.448-20.2a35.6 35.6 0 0 1 2.337 5.844 75.151 75.151 0 0 0-20.2-2.5c-22.2 0-37.727 7.178-51.082 20.533a55.581 55.581 0 0 0-11.35 16.359 65.2 65.2 0 0 1-6.844-22.7 181.245 181.245 0 0 0-17.862 11.685v-24.378h-19.7c61.1-44.738 123.2-51.583 224.862-6.677zM599.73 341.715v2.672c0 7.011-.166 12.687-.5 17.361a143.143 143.143 0 0 1-18.031 6.344 156.065 156.065 0 0 1-29.046 5.342 107.667 107.667 0 0 1-1.335-15.692c-.166-4.507-.334-9.681-.334-15.858a113.155 113.155 0 0 0 22.2-4.173 129.775 129.775 0 0 0 26.709-10.851c.337 4.172.337 9.18.337 14.855zm170.779 91.314c-.5 16.193-9.015 32.052-29.716 37.727-29.713 8.18-54.754-12.353-65.27-37.727h44.906v-67.275a27.427 27.427 0 0 1 5.175-.668h10.015l7.178 15.024 25.208 52.919z"/><path class="b" d="M880.848 408.99l-10.684 15.361c-28.88 41.4-60.6 65.939-94.318 78.96-23.037 9.015-46.909 12.687-71.615 12.687h-1.5c-39.4-.167-80.3-9.682-122.029-20.867l-23.538-6.344 15.525-18.864c37.56-45.907 71.448-73.951 102.832-89.477v52.585a67.05 67.05 0 0 1-4.34-13.521c-18.029 11.852-37.227 28.545-57.927 51.583 98.658 23.872 163.6 20.2 219.853-49.747-8.347-3.839-16.361-7.345-24.54-10.684l-10.682-20.533-10.354-19.868c25.877 7.011 50.916 18.864 76.456 30.883zm-526.012 91.814v5.676c5.508 9.849 14.356 16.526 26.209 16.526 15.692 0 26.376-8.847 31.383-22.2z"/><path class="b" d="M539.967 473.261l-17.027 16.357a467.271 467.271 0 0 1-44.07 37.561 54.608 54.608 0 0 0-7.179-8.347c-1.168-1.168-2.337-2.169-3.5-3.171a54.279 54.279 0 0 0-14.524-9.014 349.576 349.576 0 0 0 29.716-23.539c-26.043-10.684-48.913-18.53-69.78-22.869 3.506 15.024 3.005 29.379-1.169 40.565h-57.597v5.675c-7.679-13.355-9.181-32.218-4.007-47.242-22.369 5.174-43.237 17.361-65.106 37.727 26.376 15.525 48.078 27.378 69.112 33.054v32.051c-31.217-7.011-63.268-25.04-102.5-48.245l-16.692-10.015 13.19-14.19c80.462-86.972 151.075-77.625 269.6-25.874zM321.684 332.567l11.6-14.507-16.21-9.048c-140.509-78.459-217.466-49.714-302.9 26.442L0 348.095l15.04 11.569c52.318 40.247 102.7 60.313 150.108 60.313 57.143-.003 109.961-29.199 156.536-87.41zM49.898 346.172c17.011-14.123 33.5-25.775 50.329-34.473 8.647 23.2 40.1 53.4 66.792 53.4 28.829 0 52.384-20.9 56.072-62.985 18.865 5.492 39.2 13.688 61.716 25.257-67.19 73.807-146.084 80.134-234.909 18.801z"/><path class="a" d="M664.334 265.761a190.356 190.356 0 0 1-23.371 29.547c-11.686 12.02-25.542 23.2-41.567 31.551a129.794 129.794 0 0 1-26.709 10.851 113.134 113.134 0 0 1-22.2 4.174c-14.357 1.836-29.381 1-44.906-2a170.205 170.205 0 0 1-29.213-8.013 225.3 225.3 0 0 1-22.2-9.349c-4.342-2-8.682-4.34-13.022-6.677 9.348-9.348 18.2-17.862 27.044-25.374 6.677-5.842 13.188-11.018 19.7-15.692a181.144 181.144 0 0 1 17.862-11.685 65.2 65.2 0 0 0 6.844 22.7c8.179 15.859 22.2 31.05 38.393 36.559a38.99 38.99 0 0 0 19.531 2.17c13.19-2 21.535-10.016 26.043-20.7 6.509-15.191 5.176-35.891-1.335-52.417a35.64 35.64 0 0 0-2.337-5.844c21.195 2.67 44.399 9.181 71.443 20.199z"/><path class="b" d="M440.808 550.885c-14.356 7.011-28.044 11.352-41.232 13.188v-23.2h19.865a44.224 44.224 0 0 1 5.007.334c8.013.998 12.854 4.503 16.36 9.678z"/><path class="c" d="M483.711 0v114.183c3.339 2.338 6.845 4.674 10.35 7.178l18.864 13.188-19.2 12.687c-3.339 2.337-6.843 4.507-10.016 6.845v28.545h44.906V0zm265.425 578.263v37.56h27.045v2.5c0 6.845-1.836 14.356-7.012 19.531-4.005 4.341-10.517 7.179-20.033 7.179-8.179 0-14.356-3.339-17.694-7.68-4.007-5.509-6.677-11.852-6.677-45.239s2.67-39.4 6.677-44.905c3.338-4.34 9.515-7.846 17.694-7.846 15.359 0 22.7 6.678 26.21 20.533h45.072c-3.339-23.538-16.359-47.409-44.571-56.591-23.037 9.015-46.909 12.687-71.615 12.687h-1.5a47.463 47.463 0 0 0-4.34 3.84c-19.2 19.2-18.53 44.905-18.53 72.282 0 27.545-.668 53.086 18.53 72.283 13.354 13.356 29.547 20.533 50.747 20.533 20.033 0 37.561-4.34 53.086-20.533 13.856-14.022 18.531-31.217 18.531-60.764v-25.37zM375.703 72.116h67.774v40.064h-24.371a277.637 277.637 0 0 0-35.892-15.525 139.99 139.99 0 0 1 1.5 15.525h-9.015v48.245c-6.844 12.353-18.029 21.033-35.725 21.033a77.15 77.15 0 0 1-9.014-.5V0h124.034v40.064h-79.291zM640.712 182.66h-33.334L547.095.017h46.423l30.783 102.1L654.566.017h46.675zm78.994 0V.017H843.84v40.014h-79.261v30.532h67.726v40.014h-67.726v32.068h79.261v40.014zM408.59 322.518h45.574a225.39 225.39 0 0 0 22.2 9.349v30.715H408.59v70.446h-44.9V250.402h124.2v24.37c-6.511 4.674-13.022 9.85-19.7 15.692h-59.6zm186.633-71.114a75.152 75.152 0 0 0-20.2-2.5c-22.2 0-37.727 7.178-51.082 20.533a55.571 55.571 0 0 0-11.351 16.359c8.18 15.859 22.2 31.05 38.393 36.559.836-16.861 3.005-21.368 6.178-25.541 3.339-4.34 9.682-7.846 17.862-7.846s14.691 3.506 18.029 7.846a19.624 19.624 0 0 1 3.506 7.011c6.509-15.194 5.176-35.895-1.335-52.421zm49.413 83.301v7.011c0 27.545.668 53.086-18.53 72.283-13.354 13.356-28.713 20.533-51.082 20.533-22.2 0-37.727-7.178-51.082-20.533-11.853-11.852-16.026-26.209-17.528-41.9-.5-5.175-.667-10.685-.667-16.193-.168-4.508-.168-9.348-.168-14.19v-1.836c15.525 3 30.549 3.839 44.906 2 0 6.177.168 11.351.333 15.858a107.672 107.672 0 0 0 1.335 15.692c1 7.178 2.838 10.183 5.009 13.021a22.5 22.5 0 0 0 17.862 8.18c8.179 0 14.69-3.839 18.029-8.18 3.005-4.173 5.342-8.513 6.178-24.706.333-4.674.5-10.35.5-17.361v-2.672c0-5.675 0-10.684-.333-14.857 16.026-8.347 29.882-19.531 41.568-31.55a98.927 98.927 0 0 1 3 18.864c.504 6.68.67 13.524.67 20.536zm153.247 55.421l-10.352-19.865-7.01-13.354c14.356-7.178 29.715-22.87 29.715-47.744 0-30.048-21.7-58.76-62.267-58.76h-72.45v182.626h44.906v-67.943h15.19l7.178 15.024 25.208 52.919h2.5c.5-14.022-5.342-28.379-14.858-36.391 17.862 1.669 35.224 7.011 52.918 14.022zm-77.458-62.433v-37.06h25.373c12.354 0 19.531 9.015 19.531 18.53s-7.178 18.53-19.531 18.53zM354.836 500.805v5.676c5.508 9.849 14.356 16.526 26.209 16.526 15.692 0 26.376-8.847 31.383-22.2z"/><path class="c" d="M478.869 527.18a54.618 54.618 0 0 0-7.179-8.347c-1.167-1.167-2.337-2.169-3.5-3.171a54.3 54.3 0 0 0-14.525-9.014c-38.4 27.044-67.609 32.051-98.824 23.371v153.412h67.607c19.032 0 36.726-5.342 49.246-17.862 21.369-21.367 19.031-44.738 19.031-73.451-.005-25.041 1.832-45.908-11.856-64.938zm-37.894 106c-4.174 6.177-10.35 10.184-21.535 10.184h-19.866V540.867h19.862a44.212 44.212 0 0 1 5.007.334c8.014 1 12.855 4.507 16.361 9.682a.163.163 0 0 1 .167.167c3.5 5.175 4.841 10.35 4.841 41.066.004 31.051-1.333 35.893-4.838 41.067zm195.396 31.304C623.034 677.822 607.642 685 585.324 685s-37.71-7.178-51.049-20.516c-19.231-19.247-18.463-44.888-18.463-72.333s-.768-53.1 18.463-72.333c13.339-13.338 28.729-20.533 51.049-20.533s37.71 7.195 51.047 20.533c19.234 19.228 18.464 44.889 18.464 72.328s.77 53.091-18.464 72.338zm-33.106-117.222c-3.322-4.373-9.732-7.946-17.945-7.946s-14.624 3.573-17.946 7.946c-4.106 5.376-6.677 11.535-6.677 44.889 0 33.337 2.571 39.247 6.677 44.622 3.322 4.374 9.732 8.213 17.946 8.213s14.623-3.838 17.945-8.213c4.106-5.375 6.677-11.285 6.677-44.622.004-33.354-2.567-39.513-6.677-44.889z"/></svg>