<svg xmlns="http://www.w3.org/2000/svg" width="621" height="202.329" viewBox="0 0 621 202.329"><defs><style>.a{fill:#333}.b{fill:#fff}.c{fill:#f6ad4d}</style></defs><g transform="translate(-960.03 -85.307)"><rect class="a" width="556.081" height="114.138" rx="21" transform="translate(960.03 173.498)"/><path class="b" d="M995.55 205.293h11.1v43.331h22.5v9.144h-33.6zm38.896 41.483c0-8.789 7-11.4 14.782-12.12 6.841-.664 9.533-1 9.533-3.536v-.155c0-3.226-2.132-5.1-5.843-5.1-3.92 0-6.247 1.923-7 4.539l-10.1-.819c1.513-7.181 7.715-11.69 17.149-11.69 8.759 0 16.7 3.95 16.7 13.328v26.542h-10.342v-5.456h-.31c-1.918 3.665-5.688 6.2-11.506 6.2-7.505.003-13.063-3.943-13.063-11.733zm24.385-3.076v-4.175c-1.3.874-5.2 1.433-7.576 1.768-3.85.539-6.387 2.047-6.387 5.124 0 3 2.417 4.559 5.768 4.559 4.794 0 8.195-3.151 8.195-7.276zm17.868-5.558c0-13.528 7.291-20.245 15.93-20.245a11.583 11.583 0 0 1 11.2 7.126h.339v-19.73h10.887v52.475h-10.761v-6.3h-.464a11.626 11.626 0 0 1-11.171 6.946c-8.974-.002-15.96-7.098-15.96-20.272zm27.69-.05c0-7.021-2.966-11.511-8.274-11.511-5.409 0-8.275 4.694-8.275 11.511 0 6.866 2.921 11.631 8.275 11.631 5.254 0 8.274-4.615 8.274-11.631zm18.138.05c0-13.528 7.306-20.245 15.94-20.245a11.606 11.606 0 0 1 11.2 7.126h.33v-19.73h10.886v52.475h-10.757v-6.3h-.459a11.644 11.644 0 0 1-11.176 6.946c-8.968-.002-15.964-7.098-15.964-20.272zm27.7-.05c0-7.021-2.971-11.511-8.275-11.511-5.4 0-8.275 4.694-8.275 11.511 0 6.866 2.921 11.631 8.275 11.631 5.259 0 8.275-4.615 8.275-11.631zm18.013.18c0-12.145 7.506-20.375 19.087-20.375 10.407 0 18.5 6.612 18.5 19.99v3h-26.8v.025c0 5.868 3.461 9.483 8.914 9.483 3.64 0 6.462-1.563 7.56-4.564l10.1.664c-1.543 7.306-8.1 12.045-17.833 12.045-12.127-.001-19.528-7.794-19.528-20.268zm27.316-4.15a7.763 7.763 0 0 0-8.045-8.075 8.317 8.317 0 0 0-8.485 8.075zm17.394-15.711h10.582v6.866h.409c1.433-4.869 5.049-7.431 9.453-7.431a16.447 16.447 0 0 1 3.436.385v9.688a18.29 18.29 0 0 0-4.614-.589c-4.814 0-8.354 3.326-8.354 8.17v22.267h-10.912zm29.488 0h10.407v6.941h.459c1.638-4.634 5.663-7.456 10.966-7.456 5.4 0 9.428 2.9 10.687 7.456h.4c1.618-4.5 6.1-7.456 11.871-7.456 7.321 0 12.395 4.869 12.395 13.4v26.467h-10.887v-24.31c0-4.38-2.611-6.562-6.1-6.562-3.97 0-6.307 2.772-6.307 6.847v24.03h-10.574v-24.545c0-3.87-2.412-6.332-5.993-6.332-3.64 0-6.407 2.9-6.407 7.256v23.621h-10.916zm63.955 28.365c0-8.789 6.991-11.4 14.782-12.12 6.841-.664 9.533-1 9.533-3.536v-.155c0-3.226-2.132-5.1-5.843-5.1-3.92 0-6.258 1.923-7 4.539l-10.1-.819c1.513-7.181 7.71-11.69 17.148-11.69 8.754 0 16.694 3.95 16.694 13.328v26.542h-10.347v-5.456h-.3c-1.922 3.665-5.693 6.2-11.511 6.2-7.503.003-13.056-3.943-13.056-11.733zm24.385-3.076v-4.175c-1.3.874-5.2 1.433-7.575 1.768-3.85.539-6.387 2.047-6.387 5.124 0 3 2.412 4.559 5.768 4.559 4.788 0 8.194-3.151 8.194-7.276zm42.073-13.448c-.535-2.537-2.792-4.614-6.582-4.614-3.381 0-6.048 1.538-6.023 3.9-.025 1.9 1.333 3.151 4.994 3.945l7.131 1.433c7.636 1.563 11.346 4.974 11.371 10.662-.025 7.76-7.331 12.964-17.524 12.964-10.432 0-16.839-4.639-17.863-12.17l10.737-.564c.664 3.206 3.256 4.869 7.151 4.869 3.815 0 6.347-1.663 6.4-4-.055-1.978-1.613-3.231-5.049-3.92l-6.812-1.358c-7.691-1.538-11.406-5.358-11.375-11.251-.031-7.581 6.607-12.25 16.679-12.25 9.943 0 15.786 4.484 16.754 11.74zm38.716-3.642h-7.408v19.066c0 3.021 1.508 3.84 3.691 3.84a14.674 14.674 0 0 0 2.712-.36l1.717 8.125a21.281 21.281 0 0 1-5.918 1.024c-7.92.335-13.173-3.486-13.118-11.2V226.61h-5.384v-8.2h5.383v-9.428h10.917v9.428h7.406zm5.099 11.662c0-12.145 7.506-20.375 19.087-20.375 10.407 0 18.5 6.612 18.5 19.99v3h-26.807v.025c0 5.868 3.461 9.483 8.919 9.483 3.635 0 6.462-1.563 7.561-4.564l10.093.664c-1.539 7.306-8.1 12.045-17.828 12.045-12.124-.001-19.525-7.794-19.525-20.268zm27.306-4.15a7.75 7.75 0 0 0-8.04-8.075 8.317 8.317 0 0 0-8.484 8.075zm17.398-15.711h10.587v6.866h.409c1.428-4.869 5.024-7.431 9.453-7.431a10.359 10.359 0 0 1 5.383 1.438l-3.285 9.019a8.073 8.073 0 0 0-3.711-.924 7.821 7.821 0 0 0-7.925 8.12v22.267h-10.912z"/><rect class="c" width="114.14" height="114.143" rx="28" transform="translate(1466.89 85.307)"/><path class="a" d="M1544.986 112.948h-42.053a8.405 8.405 0 1 0 0 16.809h21.753l-26.288 26.292a8.406 8.406 0 1 0 11.89 11.885l26.288-26.287v21.759a8.407 8.407 0 1 0 16.814 0v-42.053a8.4 8.4 0 0 0-8.404-8.405z"/></g></svg>