<svg xmlns="http://www.w3.org/2000/svg" width="419.361" height="191.817" viewBox="0 0 419.361 191.817"><defs><style>.a{fill:#262626}.b{fill:#6b50dd}</style></defs><path class="a" d="M47.732 190.916l-.075-31.465-15.433 25.923H26.75l-15.359-25.25v30.792H0v-52.448h10.041l19.634 32.6 19.328-32.6h9.97l.149 52.448zm62.415-11.236h-24.35l-4.645 11.236H68.711l23.382-52.448h11.981l23.453 52.448h-12.735zm-3.819-9.216l-8.319-20.083-8.318 20.083zm65.636 20.452l-12.661-18.2-12.44 18.2h-13.936l19.4-26.674-18.427-25.774h13.786l12.063 17.014 11.838-17.014H184.7l-18.285 25.325 19.56 27.123zm26.244-52.448h12.139v52.448h-12.138zm40.729 9.892h-16.783v-9.892h45.707v9.892h-16.782v42.556h-12.141zm41.061-9.892h12.138v52.448h-12.138zm78.3 0v52.448h-9.966l-26.151-31.838v31.838h-11.988v-52.448h10.041l26.076 31.846v-31.846zm49 24.746h11.088v21.936a31.766 31.766 0 0 1-9.892 4.944 38.435 38.435 0 0 1-11.315 1.723 30.626 30.626 0 0 1-14.683-3.487 25.936 25.936 0 0 1-10.228-9.66 28.168 28.168 0 0 1 0-27.949 25.816 25.816 0 0 1 10.3-9.667 31.276 31.276 0 0 1 14.836-3.483 32.547 32.547 0 0 1 12.511 2.321 24.813 24.813 0 0 1 9.444 6.745l-7.8 7.189a18.042 18.042 0 0 0-13.561-5.915 18.545 18.545 0 0 0-8.913 2.1 15.094 15.094 0 0 0-6.072 5.924 18.629 18.629 0 0 0 0 17.455 15.383 15.383 0 0 0 6.031 5.957 17.882 17.882 0 0 0 8.8 2.134 19.7 19.7 0 0 0 9.443-2.25z"/><path class="b" d="M411.166 2.948a14.483 14.483 0 0 0-12.68-2.406l-175.52 49.144V14.51A14.5 14.5 0 0 0 204.55.542l-193.951 54.3a14.507 14.507 0 1 0 7.825 27.938l175.532-49.137v35.169c0 .156.041.306.045.463a14.306 14.306 0 0 0 .157 1.524 13.891 13.891 0 0 0 .25 1.443c.037.161.037.322.082.482.1.374.27.71.4 1.065.112.307.209.617.34.912a14.163 14.163 0 0 0 1.039 1.91c.071.116.127.243.2.355a14.631 14.631 0 0 0 1.692 2.048c.1.1.213.183.318.281a14.172 14.172 0 0 0 1.655 1.367c.228.157.463.292.7.441a15.019 15.019 0 0 0 1.566.848c.272.127.546.247.829.355a14.3 14.3 0 0 0 1.809.56c.239.059.467.131.706.175a12.828 12.828 0 0 0 5.318.011c.224-.038.445-.086.666-.138s.43-.075.647-.134l175.524-49.137v49.683h29.011V14.513a14.5 14.5 0 0 0-5.744-11.565z"/></svg>